<svg xmlns="http://www.w3.org/2000/svg" width="196" height="60" viewBox="0 0 196 60">
  <path d="M76 56V171L366 305Q386 314 405.5 320.5Q425 327 436 329Q425 331 405.0 336.5Q385 342 366 351L76 486V603L524 392V267Z" transform="translate(8.00,40) scale(0.032000,-0.032000)" fill="#14b8a6"/>
  <path d="M220 0 39 550H167L272 216Q281 186 289.5 154.0Q298 122 302 103Q307 122 315.0 154.0Q323 186 331 215L434 550H561L381 0Z" transform="translate(46.40,40) scale(0.032000,-0.032000)" fill="#0f1115"/>
  <path d="M300 -10Q195 -10 135.0 48.5Q75 107 75 208V550H200V209Q200 156 226.0 127.5Q252 99 300 99Q347 99 373.5 127.5Q400 156 400 209V550H525V208Q525 107 464.0 48.5Q403 -10 300 -10Z" transform="translate(65.60,40) scale(0.032000,-0.032000)" fill="#0f1115"/>
  <path d="M77 -180V550H199V445H227L199 416Q199 483 239.0 521.5Q279 560 347 560Q430 560 480.0 503.0Q530 446 530 350V201Q530 137 507.5 89.5Q485 42 444.0 16.0Q403 -10 347 -10Q279 -10 239.0 28.5Q199 67 199 134L227 105H198L202 -26V-180ZM303 98Q351 98 378.0 126.0Q405 154 405 206V344Q405 396 378.0 424.0Q351 452 303 452Q256 452 229.0 423.5Q202 395 202 344V206Q202 155 229.0 126.5Q256 98 303 98Z" transform="translate(84.80,40) scale(0.032000,-0.032000)" fill="#0f1115"/>
  <path d="M239 -10Q154 -10 105.0 35.0Q56 80 56 156Q56 237 110.0 281.0Q164 325 263 325H400V372Q400 412 374.0 434.5Q348 457 303 457Q262 457 235.0 439.0Q208 421 203 390H81Q90 468 151.0 514.0Q212 560 307 560Q408 560 466.5 509.5Q525 459 525 373V0H404V96H384L404 123Q404 62 359.0 26.0Q314 -10 239 -10ZM280 84Q333 84 366.5 111.0Q400 138 400 181V248H265Q227 248 204.0 226.0Q181 204 181 168Q181 129 207.5 106.5Q234 84 280 84Z" transform="translate(104.00,40) scale(0.032000,-0.032000)" fill="#0f1115"/>
  <path d="M76 0V114H268V437H101V550H388V114H558V0ZM318 642Q280 642 258.0 661.5Q236 681 236 714Q236 747 258.0 766.5Q280 786 318 786Q356 786 378.0 766.5Q400 747 400 714Q400 681 378.0 661.5Q356 642 318 642Z" transform="translate(123.20,40) scale(0.032000,-0.032000)" fill="#0f1115"/>
  <g fill="#14b8a6" transform="translate(160,0)">
    <rect x="0"    y="25.0" width="4" height="7"  rx="2"/>
    <rect x="5.5"  y="20.5" width="4" height="16" rx="2"/>
    <rect x="11"   y="16.5" width="4" height="24" rx="2"/>
    <rect x="16.5" y="21.5" width="4" height="14" rx="2"/>
    <rect x="22"   y="25.5" width="4" height="6"  rx="2"/>
  </g>
</svg>
